<?xml version="1.0" encoding="UTF-8" standalone="no"?>
<!DOCTYPE svg PUBLIC "-//W3C//DTD SVG 1.1//EN" "http://www.w3.org/Graphics/SVG/1.1/DTD/svg11.dtd">
<svg width="100%" height="100%" viewBox="0 0 64 64" version="1.1" xmlns="http://www.w3.org/2000/svg" xmlns:xlink="http://www.w3.org/1999/xlink" xml:space="preserve" style="fill-rule:evenodd;clip-rule:evenodd;stroke-linecap:round;stroke-linejoin:round;stroke-miterlimit:1.41421;">
    <g transform="matrix(1,0,0,1,0,-16)">
        <g id="Filled-Logo" transform="matrix(0.888405,0,0,0.888405,-636.065,5.35654)">
            <g transform="matrix(0.750575,0.375037,-0.375037,0.750575,481.762,-132.042)">
                <path d="M368,16L384,48L368,80L352,48L368,16Z" style="fill:rgb(37,50,56);stroke:rgb(37,50,56);stroke-width:2.38px;"/>
            </g>
            <g transform="matrix(1,-5.55112e-17,0,1,320,-320.076)">
                <path d="M432,338.079L408,356L432,398.157L456,380L432,338.079Z" style="fill:rgb(225,55,92);stroke:rgb(38,50,56);stroke-width:2px;"/>
            </g>
            <g transform="matrix(0.750575,0.375037,-0.375037,0.750575,505.781,-120.041)">
                <path d="M368,16L384,48L368,80L352,48L368,16Z" style="fill:rgb(40,138,226);stroke:rgb(37,50,56);stroke-width:2.38px;"/>
            </g>
        </g>
    </g>
</svg>
